<svg width="742" height="741" xmlns="http://www.w3.org/2000/svg" xmlns:xlink="http://www.w3.org/1999/xlink" xml:space="preserve" overflow="hidden"><g transform="translate(-337 -667)"><path d="M606.694 131.219 134.306 131.219C119.641 131.219 108.063 143.569 108.063 157.463L108.063 476.247C108.063 490.913 119.641 502.491 134.306 502.491L422.988 502.491 527.963 609.781 527.963 503.263 606.694 503.263C621.359 503.263 632.938 490.913 632.938 477.019L632.938 158.234C632.938 143.569 621.359 131.219 606.694 131.219Z" fill="#1A98FF" transform="matrix(1.00135 0 0 1 337 667)"/><path d="M586.561 928.37C588.212 923.877 594.788 923.877 596.439 928.37L619.008 989.793C619.52 991.185 620.635 992.293 622.062 992.825L683.642 1015.77C688.12 1017.44 688.12 1023.56 683.642 1025.23L622.062 1048.18C620.635 1048.71 619.52 1049.82 619.008 1051.21L596.439 1112.63C594.788 1117.12 588.212 1117.12 586.561 1112.63L563.992 1051.21C563.48 1049.82 562.365 1048.71 560.938 1048.18L499.357 1025.23C494.881 1023.56 494.881 1017.44 499.357 1015.77L560.938 992.825C562.365 992.293 563.48 991.185 563.992 989.793L586.561 928.37Z" fill="#FFFFFF" fill-rule="evenodd"/><path d="M815.56 850.353C817.212 845.882 823.788 845.882 825.439 850.353L848.008 911.454C848.52 912.838 849.635 913.94 851.062 914.47L912.642 937.297C917.12 938.955 917.12 945.046 912.642 946.704L851.062 969.531C849.635 970.061 848.52 971.163 848.008 972.547L825.439 1033.65C823.788 1038.12 817.212 1038.12 815.56 1033.65L792.992 972.547C792.48 971.163 791.365 970.061 789.938 969.531L728.356 946.704C723.881 945.046 723.881 938.955 728.356 937.297L789.938 914.47C791.365 913.94 792.48 912.838 792.992 911.454L815.56 850.353Z" fill="#FFFFFF" fill-rule="evenodd"/></g></svg>